<?xml version="1.0" encoding="iso-8859-1"?>
<!-- Generator: Adobe Illustrator 19.0.0, SVG Export Plug-In . SVG Version: 6.00 Build 0)  -->
<svg xmlns="http://www.w3.org/2000/svg" xmlns:xlink="http://www.w3.org/1999/xlink" version="1.1" id="Capa_1" x="0px" y="0px" viewBox="0 0 512 512" style="enable-background:new 0 0 512 512;" xml:space="preserve" width="512px" height="512px">
<g>
	<g>
		<path d="M437.02,74.981C388.667,26.629,324.38,0,256,0S123.333,26.629,74.98,74.981C26.629,123.333,0,187.62,0,256    s26.629,132.667,74.98,181.019C123.333,485.371,187.62,512,256,512s132.667-26.629,181.02-74.981    C485.371,388.667,512,324.38,512,256S485.371,123.333,437.02,74.981z M223.509,32.313C234.178,30.786,245.028,30,256,30    c60.367,0,117.12,23.508,159.806,66.194c22.086,22.085,39.022,47.943,50.24,76.112c-51.701-44.816-122.042-67.442-194.947-56.114    c-19.265,2.993-37.638,8.196-54.906,15.301c-8.915-8.058-20.256-13.468-32.778-15.019    C191.256,85.611,205.052,57.127,223.509,32.313z M176,146c16.542,0,30,13.458,30,30s-13.458,30-30,30s-30-13.458-30-30    S159.458,146,176,146z M46.706,341.572C35.749,314.769,30,285.828,30,256c0-45.003,13.072-87.994,37.408-124.649l53.109,21.837    C117.613,160.225,116,167.926,116,176c0,8.811,1.925,17.175,5.351,24.719C82.124,237.027,55.009,286.219,46.706,341.572z     M415.806,415.806C373.12,458.492,316.367,482,256,482c-15.134,0-30.041-1.479-44.557-4.366    c-66.078-83.104-72.357-169.976-67.517-250.965C153.211,232.568,164.209,236,176,236c4.177,0,8.255-0.432,12.193-1.248    c43.631,95.944,147.13,155.209,256.383,138.234c1.824-0.283,3.637-0.593,5.445-0.916    C440.57,387.806,429.121,402.491,415.806,415.806z" fill="#FFFFFF"/>
	</g>
</g>
<g>
</g>
<g>
</g>
<g>
</g>
<g>
</g>
<g>
</g>
<g>
</g>
<g>
</g>
<g>
</g>
<g>
</g>
<g>
</g>
<g>
</g>
<g>
</g>
<g>
</g>
<g>
</g>
<g>
</g>
</svg>
